<svg xmlns="http://www.w3.org/2000/svg" viewBox="0 0 100 100" width="100" height="100">
  <defs>
    <linearGradient id="houseGradient" x1="0%" y1="0%" x2="100%" y2="100%">
      <stop offset="0%" style="stop-color:#667eea;stop-opacity:1" />
      <stop offset="100%" style="stop-color:#764ba2;stop-opacity:1" />
    </linearGradient>
    <linearGradient id="roofGradient" x1="0%" y1="0%" x2="100%" y2="100%">
      <stop offset="0%" style="stop-color:#f093fb;stop-opacity:1" />
      <stop offset="100%" style="stop-color:#f5576c;stop-opacity:1" />
    </linearGradient>
  </defs>
  
  <!-- House base -->
  <rect x="25" y="45" width="50" height="40" fill="url(#houseGradient)" rx="3"/>
  
  <!-- Roof -->
  <polygon points="20,45 50,20 80,45" fill="url(#roofGradient)"/>
  
  <!-- Door -->
  <rect x="42" y="65" width="16" height="20" fill="#ffffff" rx="2"/>
  <circle cx="54" cy="75" r="1.5" fill="#667eea"/>
  
  <!-- Windows -->
  <rect x="30" y="55" width="8" height="8" fill="#ffffff" rx="1"/>
  <rect x="62" y="55" width="8" height="8" fill="#ffffff" rx="1"/>
  
  <!-- Window frames -->
  <line x1="34" y1="55" x2="34" y2="63" stroke="#667eea" stroke-width="0.5"/>
  <line x1="30" y1="59" x2="38" y2="59" stroke="#667eea" stroke-width="0.5"/>
  <line x1="66" y1="55" x2="66" y2="63" stroke="#667eea" stroke-width="0.5"/>
  <line x1="62" y1="59" x2="70" y2="59" stroke="#667eea" stroke-width="0.5"/>
  
  <!-- Chimney -->
  <rect x="65" y="25" width="6" height="15" fill="#8b5a3c"/>
  
  <!-- Heart symbol for family -->
  <path d="M50,35 C48,32 44,32 44,36 C44,32 40,32 38,35 C38,38 44,42 50,45 C56,42 62,38 62,35 C60,32 56,32 56,36 C56,32 52,32 50,35 Z" fill="#ff6b6b" opacity="0.8"/>
</svg>
