<svg xmlns="http://www.w3.org/2000/svg" style="display: none;">
  <!-- Dashboard Icons -->
  <symbol id="icon-dashboard" viewBox="0 0 24 24" fill="none" stroke="currentColor" stroke-width="1.5">
    <rect x="3" y="3" width="7" height="7" rx="1"/>
    <rect x="14" y="3" width="7" height="7" rx="1"/>
    <rect x="14" y="14" width="7" height="7" rx="1"/>
    <rect x="3" y="14" width="7" height="7" rx="1"/>
  </symbol>

  <!-- Tasks Icons -->
  <symbol id="icon-tasks" viewBox="0 0 24 24" fill="none" stroke="currentColor" stroke-width="1.5">
    <path d="M9 12l2 2 4-4"/>
    <path d="M21 12c0 4.97-4.03 9-9 9s-9-4.03-9-9 4.03-9 9-9c2.39 0 4.68.94 6.36 2.64"/>
    <path d="M3.5 8.5l1.5 1.5L9 6"/>
  </symbol>

  <!-- Leaderboard Icons -->
  <symbol id="icon-leaderboard" viewBox="0 0 24 24" fill="none" stroke="currentColor" stroke-width="1.5">
    <path d="M6 9H4.5a2.5 2.5 0 0 1 0-5H6"/>
    <path d="M18 9h1.5a2.5 2.5 0 0 0 0-5H18"/>
    <path d="M4 22h16"/>
    <path d="M10 14.66V17c0 .55-.47.98-.97 1.21C7.85 18.75 7 20.24 7 22"/>
    <path d="M14 14.66V17c0 .55.47.98.97 1.21C16.15 18.75 17 20.24 17 22"/>
    <path d="M18 2H6v7a6 6 0 0 0 12 0V2Z"/>
  </symbol>

  <!-- Profile Icons -->
  <symbol id="icon-profile" viewBox="0 0 24 24" fill="none" stroke="currentColor" stroke-width="1.5">
    <path d="M20 21v-2a4 4 0 0 0-4-4H8a4 4 0 0 0-4 4v2"/>
    <circle cx="12" cy="7" r="4"/>
  </symbol>

  <!-- Admin Icons -->
  <symbol id="icon-admin" viewBox="0 0 24 24" fill="none" stroke="currentColor" stroke-width="1.5">
    <circle cx="12" cy="12" r="3"/>
    <path d="M19.4 15a1.65 1.65 0 0 0 .33 1.82l.06.06a2 2 0 0 1 0 2.83 2 2 0 0 1-2.83 0l-.06-.06a1.65 1.65 0 0 0-1.82-.33 1.65 1.65 0 0 0-1 1.51V21a2 2 0 0 1-2 2 2 2 0 0 1-2-2v-.09A1.65 1.65 0 0 0 9 19.4a1.65 1.65 0 0 0-1.82.33l-.06.06a2 2 0 0 1-2.83 0 2 2 0 0 1 0-2.83l.06-.06a1.65 1.65 0 0 0 .33-1.82 1.65 1.65 0 0 0-1.51-1H3a2 2 0 0 1-2-2 2 2 0 0 1 2-2h.09A1.65 1.65 0 0 0 4.6 9a1.65 1.65 0 0 0-.33-1.82l-.06-.06a2 2 0 0 1 0-2.83 2 2 0 0 1 2.83 0l.06.06a1.65 1.65 0 0 0 1.82.33H9a1.65 1.65 0 0 0 1 1.51V3a2 2 0 0 1 2-2 2 2 0 0 1 2 2v.09a1.65 1.65 0 0 0 1 1.51 1.65 1.65 0 0 0 1.82-.33l.06-.06a2 2 0 0 1 2.83 0 2 2 0 0 1 0 2.83l-.06.06a1.65 1.65 0 0 0-.33 1.82V9a1.65 1.65 0 0 0 1.51 1H21a2 2 0 0 1 2 2 2 2 0 0 1-2 2h-.09a1.65 1.65 0 0 0-1.51 1z"/>
  </symbol>

  <!-- Home Icon -->
  <symbol id="icon-home" viewBox="0 0 24 24" fill="none" stroke="currentColor" stroke-width="1.5">
    <path d="M3 9l9-7 9 7v11a2 2 0 0 1-2 2H5a2 2 0 0 1-2-2z"/>
    <polyline points="9,22 9,12 15,12 15,22"/>
  </symbol>

  <!-- Logout Icon -->
  <symbol id="icon-logout" viewBox="0 0 24 24" fill="none" stroke="currentColor" stroke-width="1.5">
    <path d="M9 21H5a2 2 0 0 1-2-2V5a2 2 0 0 1 2-2h4"/>
    <polyline points="16,17 21,12 16,7"/>
    <line x1="21" y1="12" x2="9" y2="12"/>
  </symbol>

  <!-- Statistics Icons -->
  <symbol id="icon-chart-bar" viewBox="0 0 24 24" fill="none" stroke="currentColor" stroke-width="1.5">
    <line x1="12" y1="20" x2="12" y2="10"/>
    <line x1="18" y1="20" x2="18" y2="4"/>
    <line x1="6" y1="20" x2="6" y2="16"/>
  </symbol>

  <symbol id="icon-trending-up" viewBox="0 0 24 24" fill="none" stroke="currentColor" stroke-width="1.5">
    <polyline points="23,6 13.5,15.5 8.5,10.5 1,18"/>
    <polyline points="17,6 23,6 23,12"/>
  </symbol>

  <symbol id="icon-award" viewBox="0 0 24 24" fill="none" stroke="currentColor" stroke-width="1.5">
    <circle cx="12" cy="8" r="6"/>
    <path d="M15.477 12.89 17 22l-5-3-5 3 1.523-9.11"/>
  </symbol>

  <symbol id="icon-target" viewBox="0 0 24 24" fill="none" stroke="currentColor" stroke-width="1.5">
    <circle cx="12" cy="12" r="10"/>
    <circle cx="12" cy="12" r="6"/>
    <circle cx="12" cy="12" r="2"/>
  </symbol>

  <!-- Action Icons -->
  <symbol id="icon-plus" viewBox="0 0 24 24" fill="none" stroke="currentColor" stroke-width="1.5">
    <line x1="12" y1="5" x2="12" y2="19"/>
    <line x1="5" y1="12" x2="19" y2="12"/>
  </symbol>

  <symbol id="icon-edit" viewBox="0 0 24 24" fill="none" stroke="currentColor" stroke-width="1.5">
    <path d="M11 4H4a2 2 0 0 0-2 2v14a2 2 0 0 0 2 2h14a2 2 0 0 0 2-2v-7"/>
    <path d="M18.5 2.5a2.121 2.121 0 0 1 3 3L12 15l-4 1 1-4 9.5-9.5z"/>
  </symbol>

  <symbol id="icon-check" viewBox="0 0 24 24" fill="none" stroke="currentColor" stroke-width="1.5">
    <polyline points="20,6 9,17 4,12"/>
  </symbol>

  <symbol id="icon-clock" viewBox="0 0 24 24" fill="none" stroke="currentColor" stroke-width="1.5">
    <circle cx="12" cy="12" r="10"/>
    <polyline points="12,6 12,12 16,14"/>
  </symbol>

  <!-- Status Icons -->
  <symbol id="icon-circle" viewBox="0 0 24 24" fill="none" stroke="currentColor" stroke-width="1.5">
    <circle cx="12" cy="12" r="10"/>
  </symbol>

  <symbol id="icon-star" viewBox="0 0 24 24" fill="none" stroke="currentColor" stroke-width="1.5">
    <polygon points="12,2 15.09,8.26 22,9.27 17,14.14 18.18,21.02 12,17.77 5.82,21.02 7,14.14 2,9.27 8.91,8.26"/>
  </symbol>
</svg>